/* XPM */
static char *aalleon64[] = {
/* columns rows colors chars-per-pixel */
"64 64 256 2 ",
"   c #030A0C",
".  c #0B1313",
"X  c #0E1817",
"o  c #141C15",
"O  c #0B1210",
"+  c #1C251E",
"@  c #0C1D3A",
"#  c #151F2B",
"$  c #1C2823",
"%  c #13223B",
"&  c #182A39",
"*  c #0F203E",
"=  c #242C27",
"-  c #283227",
";  c #2C3836",
":  c #373B37",
">  c #35382C",
",  c #282D1C",
"<  c #433E38",
"1  c #3A4239",
"2  c #2E403C",
"3  c #464939",
"4  c #54583A",
"5  c #4D523D",
"6  c #605F3D",
"7  c #132445",
"8  c #162949",
"9  c #162B4B",
"0  c #27384F",
"q  c #182F59",
"w  c #593258",
"e  c #374A45",
"r  c #3C524C",
"t  c #3D5144",
"y  c #3E5552",
"u  c #2C4553",
"i  c #304C6D",
"p  c #484A45",
"a  c #495649",
"s  c #575946",
"d  c #445B54",
"f  c #465E59",
"g  c #475854",
"h  c #565957",
"j  c #4B4C53",
"k  c #665B55",
"l  c #5B6347",
"z  c #4B6255",
"x  c #4A635B",
"c  c #49635B",
"v  c #55695A",
"b  c #5A705A",
"n  c #656949",
"m  c #666A59",
"M  c #697558",
"N  c #757957",
"B  c #71734F",
"V  c #4B5766",
"C  c #595A66",
"Z  c #4C5570",
"A  c #4C6963",
"S  c #556B66",
"D  c #5B7464",
"F  c #5B756B",
"G  c #587469",
"H  c #4D7379",
"J  c #567876",
"K  c #516875",
"L  c #686767",
"P  c #637C6C",
"I  c #677865",
"U  c #767566",
"Y  c #686975",
"T  c #647E71",
"R  c #6C7678",
"E  c #777877",
"W  c #726B71",
"Q  c #6C5376",
"!  c #867373",
"~  c #A4636F",
"^  c #C76073",
"/  c #7C8457",
"(  c #7E814D",
")  c #6B836C",
"_  c #758769",
"`  c #6B8A7D",
"'  c #698577",
"]  c #758A76",
"[  c #7A967C",
"{  c #799577",
"}  c #7B926C",
"|  c #5F837D",
" . c #858A56",
".. c #91955A",
"X. c #848968",
"o. c #8A9668",
"O. c #878679",
"+. c #948B7A",
"@. c #859A77",
"#. c #93987B",
"$. c #949D66",
"%. c #9BA366",
"&. c #90A479",
"*. c #A6A56C",
"=. c #304F8B",
"-. c #3B6390",
";. c #577C83",
":. c #537189",
">. c #697787",
",. c #787887",
"<. c #74738A",
"1. c #5072AE",
"2. c #53558F",
"3. c #537DC3",
"4. c #847C8A",
"5. c #8D7693",
"6. c #A57B9D",
"7. c #5A8387",
"8. c #5B8791",
"9. c #6B8C82",
"0. c #638989",
"q. c #7B8685",
"w. c #789686",
"e. c #668A95",
"r. c #788497",
"t. c #6A9497",
"y. c #769995",
"u. c #6D928B",
"i. c #79A099",
"p. c #6B9AAB",
"a. c #739AA5",
"s. c #6B93B3",
"d. c #77A5A7",
"f. c #7BA7B6",
"g. c #6E94C4",
"h. c #78A8CA",
"j. c #78ABD3",
"k. c #888688",
"l. c #928A86",
"z. c #879A88",
"x. c #969887",
"c. c #878898",
"v. c #968C99",
"b. c #899A98",
"n. c #989798",
"m. c #A39A8E",
"M. c #A39897",
"N. c #AD8592",
"B. c #88A48B",
"V. c #95A58A",
"C. c #84A392",
"Z. c #8BAA97",
"A. c #96A897",
"S. c #95B29C",
"D. c #98B69A",
"F. c #97B091",
"G. c #A6A78C",
"H. c #A8A696",
"J. c #B2AB96",
"K. c #B1B497",
"L. c #8A8BA4",
"P. c #938AA3",
"I. c #8995A8",
"U. c #9998A7",
"Y. c #979AB5",
"T. c #8E93B4",
"R. c #A79BA7",
"E. c #A69DB6",
"W. c #A887B9",
"Q. c #87A9A6",
"!. c #97A9A7",
"~. c #8FB0A5",
"^. c #93B3A4",
"/. c #9DBCAC",
"(. c #99B7A6",
"). c #85ABB6",
"_. c #8BB6BA",
"`. c #97BBB9",
"'. c #99A0BB",
"]. c #A9A7A9",
"[. c #B1AAAA",
"{. c #A4BAA8",
"}. c #B7B5A8",
"|. c #ABA4B3",
" X c #A8A6B8",
".X c #B2A7B8",
"XX c #A8B5B7",
"oX c #B4B4BB",
"OX c #9DC1B6",
"+X c #A6C3AA",
"@X c #A9C7B6",
"#X c #B1CEBB",
"$X c #B4CAB4",
"%X c #B4D1BC",
"&X c #BAD6BB",
"*X c #B4C1A3",
"=X c #C4D8BC",
"-X c #C2CDB3",
";X c #8DBAC6",
":X c #94BDC7",
">X c #8FB8D0",
",X c #ACAAC4",
"<X c #B1ABC4",
"1X c #B2B6C6",
"2X c #868CC9",
"3X c #9AC4C8",
"4X c #9CC4D5",
"5X c #99C6D5",
"6X c #A7CAC7",
"7X c #BBD6C3",
"8X c #BED9C4",
"9X c #B9D5C6",
"0X c #A2CBD7",
"qX c #ABD3D9",
"wX c #B7D8D9",
"eX c #B2CFCD",
"rX c #ACD8E5",
"tX c #B7DDE6",
"yX c #A9CCE3",
"uX c #BAE1E9",
"iX c #BCE3F5",
"pX c #9CC9EC",
"aX c #C3DCCB",
"sX c #C4DCC9",
"dX c #C7DFD3",
"fX c #CDD2CB",
"gX c #CBE2CC",
"hX c #C8E1C7",
"jX c #CCE2D3",
"kX c #CCE4DB",
"lX c #C9E3D9",
"zX c #D2E6DC",
"xX c #D6EAD7",
"cX c #DDEBD8",
"vX c #E4EDDB",
"bX c #C7E5E6",
"nX c #D6EAE4",
"mX c #C5E9F3",
"MX c #C6E8F2",
"NX c #D4EEF3",
"BX c #DBF4F9",
"VX c #CEF0FA",
"CX c #E8F4E6",
"ZX c #E6F9FC",
"AX c #ECFCFD",
"SX c #E2F6F8",
"DX c #FDFDF4",
"FX c #F3FFFF",
"GX c #FFFFFF",
"HX c #FEFEFF",
"JX c #FDFDFD",
"KX c #FEFFFE",
"LX c #F6FAF2",
"PX c #F3F6EA",
"IX c #C2DFE4",
"UX c #C0BDA1",
/* pixels */
"GXGXGXGXGXGXGXGXGXGXGXJXDXLXPXCXgXB.C.C.w.' S S G G G S G D A A G 9.u.S d y y y y y r r e e e r x v z z d t t d e - $ - d I I d ",
"DXGXGXGXGXGXGXGXGXGXGXGXGXGXGXGXGXCXgX&X{.z.D G F F F F P F G F F w.y.F x f d d d d y y r e e y A D v x z t e t t 2 ; 2 e a { a ",
"_ @.F.*X=XcXvXPXDXJXGXGXGXGXGXGXJXGXGXGXJXPX@.F P F F P P F P P P w.C.P c x f x f d d d y r r A | y.u.u.9.' G d g d d d r x +X] ",
"K.-XF.b ) ) _ _ } @.F.K.-XhXvXGXGXGXGXGXJXGX$XD T T P T T ] ] @.@.B.C.P S x x x f d f d d y y A 0.d.d.d.d.d.i.' v A S S A D +XD.",
"GXGXPX) T P P v d d z v D ) ' -XPXDXGXGXGXGXK.F ) T ) ] V.&.&.%.$.&.B.) A c x x f d f f d d d A 7.t.y.d.d.d.d.t.D J 0.0.;.J B.B.",
"JXGXvXb v I P I I D I I P ) P D _ #.K.*X=X-X) T ) P { V.&.&.o./ N  .o.$.X.I x x f f f f d d d c F J 7.7.7.e.t.0.J J 0.e.8.7.0.9.",
"GXDXV.a v ) { [ [ [ w.@.B.F.F.B.B.w.` ` C.[ ) T P ] V.&.o. . .B n  . . ...%._ c x f x x d d d A F J H H H H J J H J 7.7.7.;.;.J ",
"} M z v D ] w.B.F.D.+X+X&XgXgXhXsX&X(.C.Z.z.) ) C.{.#./ B n 3 5 N n 4 n  .%.*.X.x x x x f d d G 9.u.8.8.8.7.7.J 7.7.;.H H H H H ",
"K.V.B.@.@.@.@.B.D.$X&XgXvXCXCXCXCXxX&X^.^.C.) z.D. .n n 4 4 1 n / 3 s B N ..%.$.b x x x d d d J y.i.t.p.p.p.p.t.d.d.d.y.u.9.' J ",
"GXGXGXDXDXLXPXCXvXcXcXvXCXPXCXxXxXjX&X/.^.B.z.F.o.n l 3 > 4 l / s 5 s n B B ( %.X.x x x d d d F ^.9X`.p.p.d.d.d._.:X_._.Q.C.w.u.",
"GXGXGXGXGXGXGXGXGXGXGXGXGXGXDXhX&X@X{.^.S.B.F./ l s 3 3 : s N n 3 3 s n s n ( ..%._ x x d d z +XLXGXJX~.0.t.t.y.)._.).d.y.w.` ` ",
"PXDXJXGXGXGXGXGXGXGXGXGXGXGXGXJXDX+XC.C.C.B.o.l s 5 3 1 3 B n a 3 3 s s s 6  .$.$.%.D x x r ) CXGXJXGX@XH S S J 0.t.t.e.0.0.e.y.",
"' 9.z.A.{.-XDXGXGXGXGXGXGXGXGXJXGXsX0.y.i.V.M l B n 3 1 s l s p : 3 5 s m 3 4 B ..%.o.v x y b cXGXGXGX6Xw._.4X>X0XtXMXmXmXVXBXBX",
":.:.H H H 9.LXGXGXGXGXGXGXGXGXGXGX/.8.y.Z.V.n n 4 3 > 3 5 5 3 a : 3 p m X.5 3 a B  .%.I x r ) JXGXGXGXJXJXGXGXFXJXGXGXGXGXGXGXGX",
"a.t.a.d.).dXJXGXGXGXGXGXGXJXCXzXeXp.p.d.S.o.4 3 > p s s 3 3 p p 3 h L U X.N n n m N  . .v e V.GXJXGXGXGXGXGXGXGXGXGXGXGXGXGXGXGX",
"@X`.6X6XdXJXGXGXGXGXGXGXGXGXzX6X;X>X>X;XB.4 : : s U m s : p 5 p h L U X.G.G.U s m U / / _ d I JXGXGXGXGXGXGXGXGXGXGXGXGXGXGXGXGX",
"LXJXJXDXGXGXGXGXGXGXGXGXGXGXGXGXSX0XpX5X] 3 : 3 U ! B s p p 3 p L E k.x.K.K.+.h a s N  .X.z d z.9XNXSXzXCXGXGXGXGXGXGXGXGXGXGXGX",
"GXGXGXGXGXGXGXGXGXGXGXGXGXGXGXGXGXbXrX0X_ 3 1 h X.! N k s h p h q.n.U.[.K.K.J.U p 1 s / X.x d F f.rXrXf.qXGXGXGXGXGXGXGXGXGXGXGX",
"GXGXGXGXGXGXGXGXGXGXGXGXGXGXGXGXGXNXiXqXN 3 1 U +.+.! U L k h ,.b.].].}.}.UXJ.x.j j s N I d d ' _.tXtXf.wXGXGXGXGXGXGXGXGXGXGXGX",
"GXGXGXGXGXGXGXGXGXGXGXGXGXGXGXGXFXSXBXwXM 1 p O.+.+.O.O.O.L W v.U.|.[.[.}.}.J.G.h h m l b x d ' ;XtXtXf.wXGXGXGXGXGXGXGXGXGXGXGX",
"JXGXGXGXGXGXGXGXGXGXGXGXJXJXJXFXFXFXFXlXM 1 p +.+.O.+.n.v.k.k.U.R.|.|.|.[.[.J.J.E h M a a x d ` ;XtXtXf.wXGXGXGXGXGXGXGXGXGXGXGX",
"FXJXJXGXGXGXGXGXGXGXJXJXJXJXJXJXJXFXJXlXn 1 s G.x.+.x.n.U.U.U.R.|.|. X|.|.].J.J.O.h n 5 : v f ` ;XuXuX).).AXGXFXFXFXAXAXSXSXNXnX",
"FXFXFXFXJXJXJXJXJXJXFXFXFXFXFXJXFXFXFXaXl 1 m J.m.m.M.n.R.R.R.|.|.|.|.|.|.].H.J.O.a 5 3 : x x ` ;XtXtX).0.`.6X:X`.:X5X>Xa.;.f.3X",
"AXAXAXAXFXFXFXFXFXFXFXFXFXAXFXFXAXAXFX9Xs : M J.m.m.M.R.R.R.R.|.R.R.|.|.|.[.H.J.O.p 3 p a d x ` ;XtXtX).w.^./.`.OX3XrXrXf.8.VXFX",
"BXZXZXAXAXAXAXAXAXAXAXZXAXAXAXAXAXAXAXwXs > M J.m.m.M.R.R.R.|.|.E.|. X.X.X].[.K.+.3 : p v d x ` _.tXrX).Z.9X8X9X9XdXBXBX>X;XGXGX",
"NXBXSXSXZXAXAXAXZXZXZXZXZXAXAXAXAXAXAXbXv - M G.m.m.M.R.R.R.|..X X X,X,X.X[.[.K.G.v : p b d x ` _.tXrX).~.aXdXaXaXlXSXAX5X:XGXGX",
"NXBXSXSXZXZXZXZXZXZXZXZXAXAXFXFXFXAXAXbXz - m G.M.M.R.R.|. X,X<X<X,X<X Xv.l.H.K.J.E a 1 v d x ` _.tXtX_.~.aXaXaXaXlXSXAX5X:XGXGX",
"NXBXBXSXZXZXZXZXZXZXZXZXZXAXAXAXZXNXNXuXF = m G.n.l.U.|. X,X<X,X,X Xc.C V C U H.}.U p h b d z ` _.uXuX;X~.aXdXaXaXkXZXAX4X:XGXGX",
"MXNXNXSXSXBXBXBXBXBXBXNXBXSXBXNXuX5X5X3XT = m x.m L L W c.U.E.E.L.Y : V >.<.,.n.}.E 1 m _ d d ` `.uXiX;X^.aXdXaXaXkXZXAX4X:XGXGX",
"0XtXtXNXNXbXbXbXIXIXtXwXtXbXuXqX_.9.y.y.P ; m +.h j e ; j ,.P.U.,.C Y L.L.Y.I.n.}.E 1 L ! d d ` `.iXmX;X^.8XaXaXaXkXZXAX4X:XGXGX",
"_.:X:XqXqX6X6X6X@X@XXX!.`.6X3X).9.D P ) F ; m l.k.P.c.Y C W P. Xc.,.,.j V >.c.Y.}.E e ! +.r d ` :XmXmX;X^.8XdXaXaXbXAXAX4X:XGXGX",
"q.z.z.(.(.A.Z.A.G.G.z.y.b.A.~.y.) P ) P F : h n.k.Y V p <.,.R.<XY.c.T.K >.L.c. X}.E ; ! M.t d ` :XmXmX:X~.8XdXaX8XbXAXFX4X>XGXGX",
"U O.@.#.x.B.B.V.G.V.z.p.b.V.A.b.] I b D F v m H.! ,.<.C 5.v.R.<XY.Y.P.L.T. X XoX}.O.j ! v.e d ' :XmXmX:X~.8XjX9X@XwXAXFX4X:XGXGX",
"] O.#.#.x.V.V.A.H.A.y.p.Q.A.{.!.z.) I D S E L H.H.M.P.L.5.v.R.,XR.Y.T.P.Y. XoXoX}.l.,.! n.e d ' :XmXmX:X^.aXaX+X[ `.BXFX4X4XGXGX",
"] @.#.#.x.V.V.A.H.!.a.p.I.A.XXXX!.k.] I v q.L m.M.M.v.P.U.M.R..X|.R.E.Y.Y..X1XoX}.n.k.N.].e d ' :XmXmX:X~.aX9X] , K iXAX4X4XGXGX",
"] @.x.#.x.V.V.A.A.).f.s.I.A.XXXX!.n.b.` v k.E x.R.R.n.U.R.M.R..X|.|.E.E.|.<X1XoX].x.l.fXU.e d ' :XmXmX;X~.8X{.3 O = 4XAX4X4XGXGX",
"] @.x.#.x.V.B.A.!.f.j.j.f.!.XXXXXX].(.y.A z.l.x.].].R.R.M.M.R..XR.|.,X X<X1X1XXX].l.R.fXb.e d ` 3XmXmX;X~.7X@., o ; yXAX4X4XGXGX",
"] z.x.x.x.V.B.V.!.h.j.j.h.Q.].XXXXXX!.y.A z.M.+.H.].R.R.M.M.R..X|.R. X,X1X1XoX[.].k.|.fXR e d ` 3XmXmX;X~.@Xb o o y iXFX4X0XGXGX",
"O.z.V.x.x.x.z.V.).h.h.h.h.f.!.XXXXXXb.' c q.].O.H.].R.R.v.M.E.<X.XR.U. X<X1XoX[.A.k.|.|.r e d ` 3XmXmX;XQ.S.3 o o f iXFX4X0XGXGX",
"z.z.A.x.x.A.z.z.a.s.s.s.s.s.!.XXXXXXb.D c P R.O.M.M.R.R.R.! v.U.,.5.E. X,X<XoX].H.O.k.S e r d 9.3XmXmX;XQ.Z.3 , > D rXAX0XrXGXGX",
"^.w.w.q.] w.z.z.y.p.t.e.a.).(.!.`.:XQ.J G c k.O.n.M.R.R.n.E E <.C L 4.4. X1XoX].A.O.a e r r x u.3XmXmX5X_.Z.M 4 l _ 6XVX5XtXGXGX",
"/.T S D I ] S.+X+X/.(.(.+X@X@X!.b.).a.J G c c U x.M.M.k.L p j h < < s s O. X X!.A._ a r r r A y.3XuXuX5X`.S.} / _ @.(.qX5XtXGXGX",
"OXr + D B.D.&XhXgXhXhXsXhXhX8XQ.H H H S G v x M l.n.l.k 3 : p j p p p p m U.U.n.!.U z r r r c y._.0X0X3X`.V.@.@.@.&.&.S.).tXGXGX",
"`.r - w.@X&XgXcXvXvXcXxXxXjXaXQ.i u u A F v x D O.x.U 3 p h Q 5.5.<.Y C L U.b.n.b.U z r r r z 9.i.Z.Z.~.S.&.@.@.&.&.@.&.y.qXGXJX",
"`.9.F C.@X&X&X&X=X=X&X&X&X$X+Xt.i 0 0 f G c x v O.l.U h W 5.6.W.W.E.E.I.,.I.c.b.q.M z e r r z ] { ] w.Q.Z.@.@.@.@.@.} @.` wXGXJX",
"Q.y.u.w.z.B.B.{ { { { } _ ) I y & e c F ' T F F O.O.E E v.v.5.<.R ,.v.L.Y r.q.q.R I p ; e e z ] [ w.i.Q.C.{ { { { { } { ] qXGXAX",
"T T F S v z p = + $ + + o o o O X F y.w.y.y.u.9.I U E E l.4.L j C c.L.,.R R R L R I = $ - e z ] [ C.Z.Z.[ { { { ] { { [ [ `.AXwX",
"$ $ + + + + $ t t t t t 1 t a a z C./.^.^.^.S.^.] h m E k.c.4.Y <.I.c.,.R Y Y g q.U - X $ e z ] [ B.^.Z.w.w.[ [ [ [ [ w.z.C.(.w.",
"O . . . .   e Q.Z.C.C.C.Z.Z.S.S.S.@X%X#X#X#X%X8X{.a h L E k.k.c.P.L.L.r.Y C j h U._ - # 0 2 z ] { Z.+X(.Z.B.B.B.z.w.w.w.w.[ [ ) ",
". . . . X   S qX6X@X@X@X@X#X%X%X&X7X8X8XsXaXhXgXjXm 3 h E ,.4.P.L.c.r.>.Y j e >.].X.1 0 i e d ) ] S.#X+XD.S.Z.B.B.z.w.[ { ] _ ) ",
". . . . .   S uX9X%X#X#X%X%X&X&X&X8X8XsXsXsXaXsXgXz.: j L W ,.<.<.>.R Y g e Y r.[.O.- # 0 r t D ] ^.6X+X(.S.Z.B.B.B.w.[ { ] ] ) ",
"X o o o o O G uXwX9X#X#X#X#X%X%X%X%X&X8X8X8X&X#X@XB.h e h L Y C S S C j : S r.c.|.+.o % 0 u t v ] (.eX@X(.D.S.Z.S.S.B.B.z.w.[ { ",
") ] ] ] ] ' C.wXwX9X%X#X#X#X%X%X%X%X%X&X7X8X8XD.) ) E j : p p : ; : ; ; V >.r.L.|.m.- u i i e v ] ^.eX@X/.(.S.S.6X7X+XD.Z.B.C.z.",
"#X#X%X%X%X#X#X7X7X9X%X%X%X%X&X&X&X7X8XsXaXgXjXB.; A O.E h : > = = 0 j K >.r.,.I.P.*.j 9 7 u i d ) S.6X@X/.(.S.S.eXdX%X+X(.S.Z.B.",
"aXaXaXaXaX8X8X7X7X7X7X7X7X8XsXsXaXaXaXgXjXjXaX+XK u l.4.E L L C Y <.r.>.>.r.L.Y.v.k 8 7 7 8 W ] z C.6X@X/.(.S.S.eXwX9X#X+X(.S.Z.",
"lXjXjXjXdXaXaXaXaXaXaXaXaXaXaXdXgXjXjXjXjXjX!.~ V 8 l.k.E E ,.c.T.T.r.r.r.I.Y.Y.C 7 7 8 7 0 5.g.a w.6X@X/.(.S.Z.6XwX9X#X@X+X(.S.",
"lXkXkXlXjXjXjXjXjXdXdXdXdXdXjXjXjXjXjXjX9X{.r.j 0 7 L R.c.k.,.k.T.T.r.L.Y.,X'.Z 7 7 8 9 8 s.2.w V u.6X@X/.^.S.Z.6XwXeX6X@X+X(.D.",
"bXbXkXkXzXzXzXjXjXjXjXjXjXjXjXjXjXjXxX7Xt.k R.7.0 8 0 v.].l.k.k.L.I.L.T.,XY.i * 8 8 9 8 9 -.w N.i :.3X@X/.^.S.Z.3XqX6X6X@X+X/.(.",
"tXbXbXbXzXzXzXzXzXzXjXaXjXjXjXjXjXjX#Xy.;.C ~ i 8 8 % 0 c.R.v.4.c.T.'.,XL.0 7 8 7 8 9 9 =.w 5.pXs.@ K @X@X^.Z.C.3XqX6X6X@X/./.^.",
"tXuXbXbXbXnXnXzXzXzX7X{.7XjXjXjXkXaXb.K !.>.w :.9 % % @ 9 >.n.v.L.'.'.2.8 7 7 7 8 9 @ -.2XQ j.1.s.X u f.t.^.C.y.3XqX3X3X`./.^.S.",
"tXtXbXbXbXnXnXnXzXzX+Xz.9XzXjXjX[.K >.;.~ I.p.i % & % % % * 0 K :.Z q * 7 7 7 7 8 8 8 i yXg.Q w =.X & i e.6XZ.C.3XqX6X6X@X@X+X{.",
"rXtXtXbXbXbXbXnXbXbXZ.b ^.9X#X].b.g >.i w N.K i 0 % % % % % @ @ @ @ @ 7 7 7 7 8 7 % g.=.-.2.^ r.q i 0 a.;.u a.kXCXnXzXxXjXjXgXgX",
"rXrXtXtX`.` ' T I D p $ P ~.4.V p.t.i ).:.w i f.i % % % % % % % % % 7 7 7 7 7 7 9 q h.3.w ^ >XpX:.i ).>X& X ;.;XnXCXCXcXcXxXgXhX",
"qXqXwXqXt   O       O e ;.4.5.V i K e.5.s.=.s.:.1.q % 7 7 % % % * 7 7 7 7 7 7 8 g.1.i >X6.yX1.1.0XK 4X-.8 # N.2Xf.nXxXjXjXgXaXsX"
};
