/* XPM */
static char *alefranc64[] = {
/* columns rows colors chars-per-pixel */
"64 64 254 2 ",
"   c #040B0C",
".  c #060E12",
"X  c #0B1416",
"o  c #0C1519",
"O  c #0E191A",
"+  c #0A1516",
"@  c #121C1C",
"#  c #101815",
"$  c #08100B",
"%  c #1A231E",
"&  c #111E23",
"*  c #162323",
"=  c #1A2726",
"-  c #1E2A34",
";  c #222D29",
":  c #29342D",
">  c #232D36",
",  c #2A3638",
"<  c #323C39",
"1  c #333B29",
"2  c #2E423E",
"3  c #36443B",
"4  c #3C462B",
"5  c #494B38",
"6  c #7D6C3F",
"7  c #2B3844",
"8  c #343C45",
"9  c #483F4E",
"0  c #3B434B",
"q  c #384846",
"w  c #3D544E",
"e  c #3B4A55",
"r  c #3E5651",
"t  c #3D5654",
"y  c #354A6C",
"u  c #444A49",
"i  c #43554B",
"p  c #485648",
"a  c #474B55",
"s  c #415651",
"d  c #435B54",
"f  c #4A5D54",
"g  c #465F58",
"h  c #4B5556",
"j  c #57585A",
"k  c #554E4C",
"l  c #47605A",
"z  c #4B635C",
"x  c #4D6356",
"c  c #53655B",
"v  c #536A5E",
"b  c #586959",
"n  c #5C725B",
"m  c #52634C",
"M  c #65675A",
"N  c #66765D",
"B  c #7A725A",
"V  c #575966",
"C  c #47586C",
"Z  c #685E70",
"A  c #4C6864",
"S  c #536B62",
"D  c #5A6B65",
"F  c #5C7364",
"G  c #5B766C",
"H  c #4E7376",
"J  c #567977",
"K  c #576971",
"L  c #666568",
"P  c #647C6C",
"I  c #667767",
"U  c #77786A",
"Y  c #676777",
"T  c #756979",
"R  c #647D71",
"E  c #687978",
"W  c #777677",
"Q  c #615858",
"!  c #877A79",
"~  c #8B677D",
"^  c #6A826D",
"/  c #6D8573",
"(  c #658479",
")  c #678376",
"_  c #778975",
"`  c #7B947A",
"'  c #77886B",
"]  c #66836D",
"[  c #868969",
"{  c #848B76",
"}  c #84927B",
"|  c #88957B",
" . c #948E7B",
".. c #959270",
"X. c #567986",
"o. c #536E98",
"O. c #587698",
"+. c #4F6B89",
"@. c #7B7789",
"#. c #6E788F",
"$. c #5C7BA6",
"%. c #476DA2",
"&. c #617EA5",
"*. c #475D81",
"=. c #847A88",
"-. c #957B85",
";. c #847B92",
":. c #937A93",
">. c #A47799",
",. c #A872A0",
"<. c #5A8695",
"1. c #59828A",
"2. c #678B87",
"3. c #7A8688",
"4. c #7C9B8C",
"5. c #7A9583",
"6. c #678799",
"7. c #6A969A",
"8. c #76979A",
"9. c #778994",
"0. c #7CA09B",
"q. c #5D83B6",
"w. c #6886A8",
"e. c #6B99A5",
"r. c #7698A7",
"t. c #6889B7",
"y. c #6C95B9",
"u. c #7899B9",
"i. c #748DB3",
"p. c #79A4A9",
"a. c #79A5B4",
"s. c #668BC3",
"d. c #6C91C6",
"f. c #789BC4",
"g. c #7BA6CA",
"h. c #7AA7D4",
"j. c #5D85C6",
"k. c #8A8787",
"l. c #9A8888",
"z. c #879885",
"x. c #999786",
"c. c #898797",
"v. c #978997",
"b. c #879999",
"n. c #979698",
"m. c #A3878B",
"M. c #A39B8A",
"N. c #A48A98",
"B. c #A79699",
"V. c #B39B9E",
"C. c #89A48A",
"Z. c #98A589",
"A. c #88A696",
"S. c #96A896",
"D. c #98B59A",
"F. c #97B18D",
"G. c #A7AB98",
"H. c #A6B59A",
"J. c #B8B39B",
"K. c #AEAA91",
"L. c #948DA4",
"P. c #9895A8",
"I. c #869CB5",
"U. c #9C9DB2",
"Y. c #8895A7",
"T. c #A48BA7",
"R. c #A896A6",
"E. c #B29CA6",
"W. c #AA98B6",
"Q. c #B29BB5",
"!. c #88A8A7",
"~. c #8DB0A6",
"^. c #9ABAAB",
"/. c #97B7A6",
"(. c #86A6B9",
"). c #99A6B4",
"_. c #8AB5BA",
"`. c #96B7BA",
"'. c #9AA9A7",
"]. c #B6A7A6",
"[. c #A4BAA5",
"{. c #BBB5A7",
"}. c #A1A3B9",
"|. c #ADAEB0",
" X c #C5BA97",
".X c #C2B6AC",
"XX c #9CC1B8",
"oX c #A5C3AA",
"OX c #A7C6B7",
"+X c #B6CBB6",
"@X c #B6D3BC",
"#X c #B7C9AC",
"$X c #CCD0B6",
"%X c #CCC297",
"&X c #87A9C5",
"*X c #8EB7C3",
"=X c #95B8C6",
"-X c #8FB6D3",
";X c #A5B6C2",
":X c #8CBDEC",
">X c #B49FC1",
",X c #99C3C8",
"<X c #99C8D1",
"1X c #A7CAC7",
"2X c #B5CCC7",
"3X c #BBD6C6",
"4X c #BED9CA",
"5X c #B8D5C6",
"6X c #A9CBD6",
"7X c #ACD4DA",
"8X c #B8D7D7",
"9X c #B0D0CD",
"0X c #B4DBE5",
"qX c #AAD4E3",
"wX c #BBE2EB",
"eX c #BDE4F2",
"rX c #94C1F7",
"tX c #C3DCC5",
"yX c #C3DCCC",
"uX c #C9DCC9",
"iX c #C5DDD6",
"pX c #D7DCC8",
"aX c #CBE4CC",
"sX c #C8E3C8",
"dX c #C6E0D3",
"fX c #CBE3D4",
"gX c #CCE5DB",
"hX c #D5E9DA",
"jX c #DAE9D4",
"kX c #E7EAD7",
"lX c #F3F1D9",
"zX c #C5DEE4",
"xX c #C9E5E7",
"cX c #D7ECE6",
"vX c #DEF1E9",
"bX c #CAEBF6",
"nX c #D4EEF3",
"mX c #DCF2F4",
"MX c #DCF5FA",
"NX c #DCFBFF",
"BX c #D3F1F9",
"VX c #CDF0FB",
"CX c #E7F5E8",
"ZX c #F4F7EA",
"AX c #E3F5F4",
"SX c #EDFDFD",
"DX c #E6F8F8",
"FX c #F3FFFE",
"GX c #FFFFFF",
"HX c #FEFFFF",
"JX c #FEFEFC",
"KX c #FEFFFE",
"LX c #F7FBF3",
"PX c #E3EDEA",
/* pixels */
"s d d g z v F F I ^ ` Z.H.#X$XjXkXZXLXJXGXGXGXGXGXJXGXGXJXLXpXI G P R G G G G G G 5.A.F z l l l g d d r w w l ( 7.2.( J A w 3 q ",
"q w t w d c n N ' C.H.$XH._ ` ` ` _ ` z.F.[.#X$XLXGXGXGXGXGXGX| G R R R G G G G G 5.A.I z z z z g g g d s w A 2.p.p.p.e.7.2.d w ",
"2 m { Z.{.$XkXZXLXJXGXGXGXz./ / P v x x v F G ) Z.pXkXZXLXJXZX` P R R R R P G G P 5.A.F z z z z g g g d d r A J 7.7.7.7.e.7.F l ",
"n kXGXGXGXGXGXGXGXGXGXGXLXI b ^ / ^ P P P P ^ / G I / ` C.oXZ.^ / / ` ` / R G G P 4.A.F z z z z l l l g d s l H H H H H J X.A A ",
"F.GXGXGXGXGXGXGXGXJXZXlXG.x I _ z.C.C.C.C.F.D.oXD.D.F.5.4.D.C.` z.z.C.z._ / R G P 4.A.F z A z z l l l g d r A J J H H H A A A A ",
"| lXkXkXpX$XJ.F.Z.' ' n n G ) ` 4.A.D.#X@XsXjXCXjXjXaX+X[.D.Z.| } C.} z.z.} R G P 4.4.F A A A z l l l l d s G 8.8.<.<.<.<.X.X.X.",
"i m N ) b f p x ) +XpX$X#XH.H.H.F.H.#X$XaXCXZXLXZXCXCXyXH.` ^ I I I N N _ _ / P P 4.4.F S A A z l z l l d i J 0.!.e.y.y.e.7.e.a.",
"c S J 2.J S S z A.GXGXGXGXGXGXGXJXJXLXZXZXLXLXLXjXsXsX+X_ n b x x p c j c n / _ R 4.4.F S A A z z z l l g w 5.uXZX5X7.7.7.7.p._.",
"A J J 1.J J J H 5.ZXGXGXGXGXGXGXGXGXGXGXGXGXGXGXZXjXZ.N p p f f i q h u q w n ^ / 4.4.F S A A z z z z l d x jXGXGXGX0.J G S J 2.",
"H H H X.X.J J J H 2.D.[.+X$XpXkXJXGXGXGXGXGXGXGXGXuXn 3 u u q s w 0 q u p 5 q I _ 5.5.F A A A z z l z l d d uXGXGXLXA.H 6.<.e.p.",
"X.<.<.<.<.X.X.<.1.X.X.X.H H H 5.LXGXGXGXGXGXGXGXJX` 3 p M L j a q u j W x.[ 5 p / 5.5.F S z z z z l z l d x kXGXGXLXkXhXSXMXNXFX",
"e.r.a.r.r.7.e.a.p.p.p.r.r.r.p.2XJXGXGXGXGXGXJXLXkXp u U ! -.k.T j L k.{.$X X..p b 5.5.I v z z z l l l l r I GXGXGXGXGXGXGXGXGXGX",
"_._.*X_.`.`.`.,X1X1X1X`.,X,X8XGXGXGXGXGXGXGXJXLXz.3 U  .l.l.l.:.=.k.B.{.$X%X%X..u _ 5.F v z z z l l g g d x kXGXGXGXGXGXGXGXGXGX",
"1X1X6X6X7X7X8XiXcXCXCXCXCXCXLXGXGXGXGXGXGXGXGXJXc j  . .l.l.N.N.v.N.V.]..X%X X XM F 5.F v z z S l l g g g r ^ OXnXnX2XPXGXGXGXGX",
"xXxXcXcXcXcXvXAXFXGXGXGXGXGXGXGXGXGXGXGXGXGXGXpXq U l.l.l.N.N.N.N.R.V.].{..X X%X{ f _ I z z z S z z l g g s G a.qXqXe.iXGXGXGXGX",
"DXSXFXFXFXFXFXFXFXGXGXGXGXGXGXGXGXGXGXGXGXJXGXG.q l.l.l.m.N.N.N.N.E.E.E.].{.J. XM.f I I S z v v S z l l g s G _.wX0Xp.zXGXGXGXGX",
"FXFXGXGXFXFXFXFXFXGXGXGXGXGXGXGXGXGXGXGXGXGXGX_ h M.x.l.l.N.N.B.R.R.V.V.].].]. XK.j F I v v D S S z l l g s ) _.eXwXp.xXGXFXGXGX",
"FXFXGXFXFXFXFXFXFXGXGXGXGXGXGXGXGXGXGXGXGXGXGXD b M.x.l.l.N.B.E.E.E.E.].].].].J.K.j c ^ I n D F D S z l g s ) *XeXwXp.0XGXGXGXGX",
"FXFXFXFXFXFXFXFXFXFXGXGXGXGXGXGXGXGXGXGXFXGXLXi M M.x.m.N.B.E.].].].]..X{.{.{.J.K.b w N I I I F v S z l g d ( *XeXwXr.r.xXzXiXiX",
"DXSXFXSXSXSXSXSXFXFXFXFXFXFXFXFXGXGXGXFXFXFXiX< j x.M.N.R.R.E.].E.E.].{..X{.{.J.K.j q b I I F S z S z l g d ( *XeX0Xp.( A.!.p.p.",
"vXAXDXAXAXAXAXDXDXSXFXFXFXFXFXFXFXFXFXSXcXiXA.; j M.l.W c.T.W.Q.Q.W.Q.Q.{..X{.J.M.h q b I I F D S v l l d d ( _.wX0Xp.A.5X5X5X9X",
"xXmXMXmXmXmXmXMXAXAXSXSXSXSXFXFXFXFXFXAXnX8XD ; U M.W V h V @.W.Q.W.W.P.P.n.G..Xx.e q n N F S v v z l l d d ( _.wX0Xp./.fXyX4X3X",
"xXnXmXnXnXmXmXmXMXAXDXSXSXSXFXFXFXFXFXAXxX8XS = W  .@.;.Y a V ;.L.L.@.V a K k.J.M.8 q N I D v g x x l g d d ( _.eX0Xp./.dXyX4X3X",
"xXxXnXxXxXnXmXmXMXMXAXSXSXSXFXFXSXSXFXDXxX8XD = { x.=.L a a j =.P.c.Y V Y ;.c.x.K.8 < n I D z d g g g g d s ( _.xXeXa.^.dXyX4X3X",
"7X7X0X6X6X0XxXnXnXxXnXSXSXSXFXSXSXSXSXSXmX8XE ;  .x.L #.a &.T ! E.R.T Z a Z c.R.K.0 : x I v x g d s d d s s ( _.bXbX(./.dXyXtX3X",
"_.b.!.8.3.~.1X7X0X,X7XBXnXDXSXAXMXmXmXmXnXxX! u x.l.=.=.@.@.T ! V.n.@.Y.a +.Y n.J.u : p F g d g s s d s s s ( `.bXbX_.^.dXyX4X3X",
"3.B U E I ' z.'.`.z.!.7X1XzXxX8X7X9X2X2X1X|.m.! x.M.v.k.=.T W -.E.B.;.;.@.c.=.c.{.h < c b g d g d s d d s s ( *XbXbX_.^.dXyX4X3X",
"U B U U I U { } } _ z.S.S.`.^.'./.H.K.G.A.b.m.k.x.M.B.v.:.:.l.l.E.E.v.@.=.c.n.R.{.D u M b d d d d s s d r s ( *XVXbX_.^.dXyX4X3X",
"[ [ [ ' U U _ { } } { { x.x.Z.S.S.G.K.Z.r.(.m.-.x.B.N.N.N.v.m.-.].].B.P.v.v.].{.{.L Q I c s s d r r r s r s ( *XBXbX_.^.dXyX4X3X",
"[ [ [ { _ / _ | z.z.} | x...Z.S.S.G.H.S.r.(.N.=.x.B.m.N.T.T.l.l.E.].R.Q.R.]..X{.J.U ! I x s r r r r w r w w ) *XBXbX_.^.dXyX4X3X",
"[ [ [ | | { { z.z.z.} z.Z. .Z.S.S.H.[.!.y.I.m.! k.B.N.Q.T.-.-.B.Q.{.V.T.Q.Q..X].K.U m.M r s r r r r r s r w ) *XBXbX_.^.iXyX4X3X",
"[ [ [ { | } } z.z.z.z.z.Z.Z.Z.S.S.G.'.&Xg.(.l.! { B.B.Q.:.~ -.N.>XR.l.:.W.Q.Q.].G.L B.b w s r r r r r s r i ( ,XBXbX_.^.iXyX4X3X",
"[ [ [ { | } ` z.z.z.z.z.Z.Z.Z.S.S.S.).-X-X-XB.=.W n.N.v.T =.T T :.=.@.;.:.Q.Q.].Z.U B.b s s s r r r r s r s ( ,XBXbX_.^.dXyX4X4X",
"[ [ [ [ | } } z.z.z.z.z.S.Z.x.S.S.S.`.h.-X:XU.! I l.v.=.h u < 8 V a a Y T T.R.].z.k.].x s s s r r r r s r s ( ,XBXbX(.^.dXyX4X4X",
"U [ ' U { { { z.z.z.z.Z.S.Z.x.S.S.S.*Xh.g.h.h.9.L k.v.Y , > > > 7 7 > , a :.P.P._ n.B.d d r r s r r r r r s ( ,XBXbX(.^.dXyX4X4X",
"5 m N C.F.F.D.H.D.[./.A.S.n.z.S.A.z.a.y.w.w.g.!.b W k.h 8 k 9 k T 9 0 e 7 Y c.v.W l.3.f d w r r r r r r r s 2.,XVXbX_.^.dXiXyXyX",
"I N | @XsXsXsXaXaXaX5Xb.) E E 3.S.D./.~.A.A.XX^.L W W T Y T N.T.T.L.:.Z a V c.@.L R P c s w r r w w w r w d 7.<XbXwX,X,X5X5X2X2X",
"OXoXoXtXaXaXaXaXhXhX8X( ; f ` C.@XsXtXtXtXtXsXfXI L L c.L.=.'.8XzX8X;XZ T 3.Y D h / P g d s s r w r r r w d p.,X7X7X,X*X~.!.A.A.",
"[.D.D.F.D.F.C.F.oXdX7XH # ) OXtXhXCXCXCXCXCXjXvX3.u h T n.-.~ :.T.P.;.=.P.@.a a h _ P g s s r w w r r r w s 5.^.2X2XOX7.t e e e ",
"4 4 1 b A.A.4.5.A.9X1X8.S A.@XtXaXaXaXaXaXaXtX3XA.< u K c.v.>.,.,.,.>.T.P.V 0 a c 5.R x d s s r w w w r w d 5.oXtXyXOXi @ * * & ",
"S S v 5.1X1XXX`.~.XX`.!.8.8.A.A.C.` ` ` ` ' ' ^ S < 8 a W v.=.T Y ;.P.R.@.a a a b ) S w q q q q 2 2 2 q q d z.@XhXfX^.d 3 3 3 3 ",
"^.^.^.^.@XOXA._ / ) ) R G S z g 3 % % = % # X X o : < 7 0 L j , , 0 T W V a a s / q < ; = = * * * * @ = 2 d C.@XhX4XA.P ^ ^ P P ",
"~.~.D.S.A.z.f % % % % @ @ @ @ # = i i i i i p p x c , , , 8 8 V Y j a a 8 a 8 R P % @ % O O O O o X . @ 2 d A.@XdX2XC.` 5.5.` ` ",
"p p p p i 3 ; O o X X X X X X   z XX/.D.D././.oXOXoXh > , , 0 V V j 0 8 8 7 h _ 3 % @ @ O O O O o o . @ 2 d A.OX4XOXD.A.C.C.z.5.",
"o O O @ @ O @ @ O o o o o o O   E xX3X@X@X@X@X3XtXsX_ < , 8 u a 0 a u 0 8 , W I 3 X O o o o o X X X . * q i _ oX5XOX/.D.S.A.C.4.",
"O @ @ @ @ @ @ X .     . . . .   J xX8X5X@X@X@X3XyXsXk.h , 8 0 0 8 0 0 0 7 a n.M P o @ O O O O O O @ O = q q G oX4XOX^.D.D.A.C.C.",
"O @ @ @ @ o @ : : : : : < < 3 : 2.xXiX3X5X@X@X3XtX3Xk.W q > 8 7 7 8 0 8 0 #.G.M b.; * * * * * * * * * * : q v oX4X1XoX/.D.A.D.oX",
"O @ @ @ @   S 8XOXoXoX^.^.^.^.^.OX8X4X3X3X3X3X3XaXOX{ =.L , > - 7 7 7 7 K 3.G.M `.s + * & & @ @ O @ @ O * q v ^.3X1XoX^./.S.^.8X",
"O O @ O @   8.FXAXcXhXfXdXdXyXyXtXtXtXtXtXyXyXfXhXb.W k.=.L , - > > 7 V Y 3.|.B `.b.  X @ o o o o o @ o * q v C.OX1XOX^./.S.^.8X",
"O O O O O   8.SXDXAXvXhXhXhXfXdXyXyXyXyXaXdXhX2XX.X.W k.k.W V , - > h E Y 3.|.M ).8Xb.q . O o o X o @ X * < i I A.1XOX^./.A./.8X",
"O O O O O   8.SXDXAXAXvXvXcXhXhXhXfXfXfXfXcX4XO.o.#.L k.=.=.W D C Y #.#.9.c.'.j ).8X-X&Xq   O o o o o X * , 2 f 5.1XOX^./.A./.0X",
"O O O O O   8.NXAXAXAXAXvXvXvXcXcXhXhXhXvX2XX.y w.6.L n.k.k.c.T Y 9.9.c.9.P.'.k ).8X`.i.`.q     . o o X * , q x 5.1XOX^./.C.~.qX",
"O O O o o   7.NXmXMXmXmXmXvXvXvXvXcXCXcX).O.+.+.i.w.V P.v.c.n.c.@.Y.L.Y.Y.U.n.k ).9X1Xu.&X6X8.K >   @ X * : , 3 ) 1XOX^.~.A.~.qX",
"o o o o o   7.BXnXmXMXMXmXmXvXvXCXCXiXY.o.w.+.C u.y.Y L.P.P.n.P.P.P.U.).).}.=.j I.9X=Xu.u.=X6X6X6Xh   o * = = = G 1X^.^.~.4.!.7X",
"o o o X X   8.VXnXnXmXmXmXmXmXDXcX`.w.O.&.O.C o.I.u.Y L.P.P.P.L.P.U.).}.}.P.W L I.9X`.w.(.-X&X=X`.8XS   X = ; < c P n / 5.5.~.7X",
"o o o X X   r.VXbXnXnXnXmXmXmX9Xr.w.$.q.&.o.*.*.I.f.Y L.L.P.P.L.P.U.).}.).c.W T I.6X1X6.(.-X*X=X`.=X8X!.z ; ; 3 : ; : : 3 OXhXcX",
"      $ X $ r.VXbXbXnXnXMXxX(.w.w.w.t.t.w.+.*.O.r.f.Y L.L.P.U.L.P.P.U.U.P.c.@.@.).6X`.8.(.=Xg.r.=X=X(.=XiX`.c = ; : ; = q BXAXvX",
"_ 5.z.C.A.S.1XxXgXxXcXgX;Xw.O.w.w.s.t.$.&.+.o.w.C $.w.c.P.L.U.P.L.P.U.U.c.c.=.=.(.6X`.8.(.-X(.!.*X&X&X(.&X6X9XE ; : : = q BXnXgX",
"fXgXhXhXhXhXfXfXfXhXyXr.w.w.w.w.t.q.t.t.O.*.$.&.e o.w.c.U.L.}.U.P.P.U.P.c.c.;.;.*X6X`.r.&X&X).(.f.&X&X*X&X&X=X8Xb.: 3 ; < bXMX0X",
"3XtXyXyXyXdXfXfXhXfXr.6.w.t.w.t.s.s.t.t.O.+.w.o.C w.y.i.U.L.}.}.W.U.U.L.c.c.;.i.w.6.;XI.&Xu.(.-X&X(.(.&X&X_.*X&X6XD 1 3 2 xXNXwX",
"3X4XyXyXiXfXfXgXhX;X6.w.w.t.t.d.s.s.t.t.O.o.w.O.+.&.&.u.u.Y.}.;X;X}.U.n.v.;.#.y.+.> r.(.g.I.(.&Xf.(.&X&X&Xu.-Xf.-Xb.< p 3 wXNXeX",
"5X3X4XyXiXdXfXgXgX8.w.t.$.y.y.s.j.d.t.i.$.$.w.w.&.$.o.f.h.h.Y.W.}.U.P.B.l.9.t.y.C > w.u.y.(.&Xg.&Xu.u.u.(.(.g.&X(._.p 5 3 0XNXeX",
"5X3X4X4XiXiXiXcX1X6.t.t.$.y.t.d.d.d.t.t.$.t.t.y.y.y.o.h.rX:XI.L.U.P.v.B.M.w.$.f.+.*.d.y.r.(.&Xg.u.f.f.f.(.u.&Xy.&X-XU 5 5 6XNXeX",
"2X5X3X4X8XiXiXgX!.O.w.t.$.f.d.s.s.s.t.y.j.d.t.y.s.f.$.w.:X:X-Xc.U.P.v.B.Y.w.w.f.%.q.f.&Xu.u.f.f.u.y.t.u.r.f.d.i.w.-Xn.B 5 6XNXeX"
};
