/* XPM */
static char *jbouyer64[] = {
/* columns rows colors chars-per-pixel */
"64 64 254 2 ",
"   c #070E13",
".  c #0B1315",
"X  c #0C1519",
"o  c #0E191A",
"O  c #141D1B",
"+  c #00070D",
"@  c #1A231D",
"#  c #25281C",
"$  c #3A351B",
"%  c #322F1E",
"&  c #0C192A",
"*  c #192424",
"=  c #192A38",
"-  c #242C23",
";  c #2B3329",
":  c #373828",
">  c #293936",
",  c #353C35",
"<  c #342A23",
"1  c #443C36",
"2  c #443B27",
"3  c #394439",
"4  c #2F423D",
"5  c #43453B",
"6  c #545130",
"7  c #655B31",
"8  c #6F6D35",
"9  c #51481B",
"0  c #172D43",
"q  c #1B3249",
"w  c #1E3754",
"e  c #253C48",
"r  c #3A4D44",
"t  c #374B46",
"y  c #3C534C",
"u  c #3C5246",
"i  c #3D5652",
"p  c #314752",
"a  c #315064",
"s  c #474B43",
"d  c #41554C",
"f  c #44594E",
"g  c #495748",
"h  c #535B4A",
"j  c #445C55",
"k  c #4A5D53",
"l  c #455F59",
"z  c #465752",
"x  c #595C55",
"c  c #4C4B48",
"v  c #625B4D",
"b  c #59644D",
"n  c #4D6256",
"m  c #466059",
"M  c #4A635B",
"N  c #4B645B",
"B  c #526A5D",
"V  c #5B6C5B",
"C  c #566656",
"Z  c #5E755C",
"A  c #646A59",
"S  c #68775C",
"D  c #74714E",
"F  c #545C6A",
"G  c #4A6967",
"H  c #546D62",
"J  c #5B6965",
"K  c #5C7363",
"L  c #5B756A",
"P  c #5E786D",
"I  c #54726B",
"U  c #4D7377",
"Y  c #577A77",
"T  c #686D64",
"R  c #637A65",
"E  c #627B6C",
"W  c #697766",
"Q  c #757868",
"!  c #777976",
"~  c #6B7073",
"^  c #857A54",
"/  c #8A7977",
"(  c #865C78",
")  c #69826A",
"_  c #77866A",
"`  c #6A8575",
"'  c #7C8B73",
"]  c #768978",
"[  c #78927A",
"{  c #6A846F",
"}  c #898854",
"|  c #878967",
" . c #838C73",
".. c #828D7C",
"X. c #858478",
"o. c #84937C",
"O. c #879879",
"+. c #979A7B",
"@. c #919071",
"#. c #98A671",
"$. c #A9A776",
"%. c #385C93",
"&. c #567A86",
"*. c #4E748B",
"=. c #777887",
"-. c #6D7589",
";. c #4673AB",
":. c #857988",
">. c #92728F",
",. c #A1769E",
"<. c #5A8389",
"1. c #5B8693",
"2. c #668985",
"3. c #768B84",
"4. c #759384",
"5. c #73968D",
"6. c #7C9989",
"7. c #6C969C",
"8. c #789B92",
"9. c #6D8C93",
"0. c #7EA096",
"q. c #769DA4",
"w. c #7395AF",
"e. c #79A4AC",
"r. c #7AA3B5",
"t. c #75A7CD",
"y. c #6CA9FD",
"u. c #79B6FA",
"i. c #78B2EA",
"p. c #6A96CA",
"a. c #898A84",
"s. c #988B89",
"d. c #8C9A81",
"f. c #869886",
"g. c #9B938D",
"h. c #979987",
"j. c #8A8999",
"k. c #948B95",
"l. c #879B97",
"z. c #9C9493",
"x. c #989799",
"c. c #A18F8B",
"v. c #A4959B",
"b. c #A49A9B",
"n. c #A59995",
"m. c #A59391",
"M. c #88A389",
"N. c #98A48A",
"B. c #8AA797",
"V. c #94A592",
"C. c #96AA97",
"Z. c #99B499",
"A. c #99B18E",
"S. c #A7A798",
"D. c #B4AC98",
"F. c #A6B597",
"G. c #B4B49A",
"H. c #ACAE89",
"J. c #988BA4",
"K. c #8A94A6",
"L. c #9B9CAC",
"P. c #9997A7",
"I. c #9A9CB2",
"U. c #898CA7",
"Y. c #A59AA4",
"T. c #A49CAA",
"R. c #A99DAB",
"E. c #A698A5",
"W. c #A69DB3",
"Q. c #AA92A6",
"!. c #87A8A3",
"~. c #99A7A9",
"^. c #9AB7A6",
"/. c #87ACB5",
"(. c #9AA3B4",
"). c #89B3B7",
"_. c #96B7B6",
"`. c #8DB1AA",
"'. c #A3A2AD",
"]. c #A9A5A7",
"[. c #B2ACA9",
"{. c #B7B6A6",
"}. c #A3A3B4",
"|. c #A4A4B9",
" X c #AAA4BA",
".X c #ACAABE",
"XX c #AAA6B5",
"oX c #ABB5B3",
"OX c #C1B9AD",
"+X c #ABC19B",
"@X c #AAC7A8",
"#X c #ACCAB5",
"$X c #A8C8B8",
"%X c #B4CCB7",
"&X c #B7D4B9",
"*X c #BACAAC",
"=X c #9DC0B9",
"-X c #C7D6B9",
";X c #C8CBAC",
":X c #85ADC4",
">X c #8CB9CB",
",X c #AAAAC1",
"<X c #ACB4C2",
"1X c #85BBEE",
"2X c #98C4CB",
"3X c #99C8D6",
"4X c #A9CBCA",
"5X c #B9D6C5",
"6X c #ACD3DA",
"7X c #BAD9D7",
"8X c #A9CDD1",
"9X c #89C6FB",
"0X c #93CEFC",
"qX c #9BD7FE",
"wX c #96CAE8",
"eX c #A9D6E5",
"rX c #B7DDE6",
"tX c #A1D9F5",
"yX c #B8E1EC",
"uX c #ACE3FB",
"iX c #BAE5F1",
"pX c #C5DCC9",
"aX c #D0DCCE",
"sX c #C9E2CA",
"dX c #CBE2D5",
"fX c #D4E8D7",
"gX c #DDE2CB",
"hX c #E4F1DD",
"jX c #E4EAD6",
"kX c #C9E6E9",
"lX c #D4ECEC",
"zX c #D7EBE6",
"xX c #CAE9F1",
"cX c #D4EDF2",
"vX c #D9EFF0",
"bX c #DBF2F4",
"nX c #D8F2F7",
"mX c #DCF0ED",
"MX c #E7F4E8",
"NX c #F4F6E9",
"BX c #E2F5F5",
"VX c #E3F6F9",
"CX c #E6F9FB",
"ZX c #EBFBFC",
"AX c #EBF7F4",
"SX c #FCFDF5",
"DX c #F4FEFE",
"FX c #FFFFFF",
"GX c #FEFEFE",
"HX c #FDFDFD",
"JX c #FEFFFE",
"KX c #F4F9F1",
"LX c #E8EDE4",
"PX c #C3DFE3",
/* pixels */
"r d k n B K R _ O.A.+X-XgXhXNXSXFXFXFXFXFXFXFXFXFXFXFXFXFXFXFXNX_ H P P P P L L L I L ` 8.4.K N j j j j i y y t t 4 t m Y Y I G ",
"4 4 u f C Z ) O.A.*X-XO.] O.M.N.N.F.G.;X-XgXjXNXFXFXFXFXFXFXSXFXF.B E P P P P L L L L ` 8.4.K N l l j j i i y y t t t G ` 2.2.<.",
"S O.F.;XgXhXNXHXFXFXFXaX) ` ` E B n n B K ) ` [ *XHXFXFXFXFXFXFXF.H E E P P P L L L L ` 8.4.K N l m l j z z i y y t r G Y 2.2.<.",
"SXFXFXFXFXFXFXFXHXSXFXaXZ R ) ) R K K K K E E E R O.F.*X-XaXjXgX] P E E P P P L L L L ` 8.4.K N m m m j z z z y y r r l G G G G ",
"FXSXSXSXHXFXFXFXFXFXFXF.g K ` ] [ [ [ [ [ [ M.M.6.[ [ ` ` [ M.] E E E E ` P L L L L L ` 8.4.H N m m m j j j z i y y y m G m i i ",
"FXFXFXFXFXFXSXNXgXaXF.S K ) [ f.M.M.A.Z.Z.@X&X&X&X%X@X^.M.8.B.4.E E ] B._.8.E L L L L ` 0.4.H N N M m j j j j z y y f I Y I G G ",
"gX-X;XG.N.O. .O.@._ Z R R ) ] [ M.Z.@X&XpXfXhXMXhXfXfXpX^.B.B.6.E [ e.).>X_.4.L L K L ` 0.4.H N M M m j j j j z i y j Y 2.<.&.*.",
"K C g d u k ` hXFXKXLXgXaXpX-X-X*X&X-X-XsXfXMXMXMXhXfXsX#X^.^.B.f.`.`.^._._.!.] K H L ` 8.4.H N M M N j j j j j z y l Y 8.0.<.&.",
"Y I G M m N Z.FXHXFXFXFXFXFXFXFXFXFXFXSXSXSXSXSXfX&X5X&X@X^.M._ ' V.' S O.f.^.C.O.E L ` 8.4.H N M M M m j j j j z r B Z.NXSX`.&.",
"Y I I G G G B.FXFXFXFXFXFXHXHXFXFXFXFXFXFXFXFXFXNXhXpX^.^.^.h 3 g h 3 3 b S d.Z.M.' E ` 8.4.H N M M N m j j j j z r V.AXFXFXfXY ",
"U Y U U U U Y {.jXLXNXSXHXFXFXFXFXFXFXFXFXFXFXFXFXFXKXZ.C.' s > 3 g 3 , h C W ' M.d.` ` 8.4.B N M M N m l j j j j r A.MXFXFXMX` ",
"&.&.&.U U &.&.U Y 2.2.4.l.C.%XFXFXFXFXFXFXFXFXFXFXFXHXF.O.W h ; , g h s g k C K _ M.O.] 8.[ B M M N m m j j j j j t A.FXFXFXSXpX",
"1.1.<.<.1.7.9.9.9.1.1.<.<.<.^.FXFXFXFXFXFXFXFXFXFXFXjXO.b k C r , k J C z d z z C o.O.[ 8.] B N N m m j j j j j j u aXFXFXFXFXFX",
"q.q.q.q.e./.).).).e.e././.4XMXFXFXFXFXFXFXFXFXKXMX-XO.b r z T ~ J T ! ..' T x s s W o.O.B.` B N N m j j j j j j z u gXFXFXFXFXSX",
").)._._.2X4X4X7X7X5X5X7X7XmXFXFXFXFXFXFXFXFXHXKXMXd.g s c ! X.s.a.s.S.G.G.G. .Q b h [ f.B.` B N m j j j j j j z j t N.FXFXFXFXFX",
"4X4X8X8X7XdXzXAXHXFXFXFXFXFXFXFXFXFXFXFXFXFXFXFXFXV., c Q @.+.c.c.n.D.G.;X;XG.+.| A W [ M.] B N m l m j j j j z z y n M.4XkXkX%X",
"dXdXkXkXzXBXAXHXFXFXFXFXFXFXFXFXFXFXFXFXFXFXFXFXSXA r Q @.+.c.c.m.n.D.D.{.-X;XH.@._ S W M.[ N N m m m m l j j z j y N 2.:XwX3X1.",
"BXBXBXAXZXDXDXFXFXFXFXFXFXFXFXFXFXFXFXFXFXFXFXFXNXs T @.s.s.c.m.m.n.n.n.D.;X;XH.$.| Q A O.[ N m m m m m m m j j j y B 5.>XeX3X7.",
"ZXDXDXDXDXDXDXHXFXFXFXFXFXFXFXFXFXFXFXFXFXFXFXFX{.s X.s.s.c.m.v.v.v.m.n.S.{.OXD.$.| D b _ [ N m m m m m m m l j j y H 5.2XeX3X7.",
"DXDXDXDXDXDXDXDXHXFXFXFXFXFXFXFXFXFXFXFXFXHXHXFXW C h.g.m.v.Y.E.Y.Y.v.Y.Y.[.[.D.H.+.Q b b ' B l l m m l m l l j j y H 5.3XrX3X7.",
"ZXZXDXDXDXDXDXDXHXHXFXFXFXFXFXFXFXFXFXFXFXKXZXLXg Q n.n.v.Y.Y.R.E.T.Y.T.T.].[.[.D.S.Q A b _ B j j m m j l m l j j i H 5.3XrX3X7.",
"VXVXZXZXZXZXZXDXDXDXHXHXHXFXFXFXFXFXHXHXHXAXAXaX3 ..S.n.b.v.Y.Y.Y.T.E.Y.R.XX[.[.D.S.' C b _ B j j l l j j l l j j y H 5.3XeX3X7.",
"vXvXbXbXBXBXVXZXZXDXDXDXDXDXDXDXDXDXDXDXDXZXvX^.5 N.S.n.v.v.E.E.R.T.E.Y.].XX[.[.[.G.a.x 5 W B N j l j j j l l j j y H 5.2XeX3X7.",
"kXkXlXlXlXvXbXbXVXZXZXZXZXZXZXZXZXZXZXZXZXZXZX6.h F.S.g.s.x.W.XXXXR.R.R.'.XX[.[.[.G.N.C s K B k j j j j j j j j z y H 5.2XeX3X7.",
"kXkXkXkXlXlXcXcXbXVXCXCXCXCXCXCXCXCXCXZXZXCXDXl.A {.g.A F J =. X,X X}.P.=.~ =.n.[.G.S.T C R B j z j j j j j j j z y H 8.2XeX3X7.",
"kXkXkXlXlXlXcXcXnXBXVXCXCXCXCXCXCXCXCXCXCXCXDXf.Q F.Q ~ -.-.=.L.,X,XW.j.-.~ -.~ h.G.G.W 5 R K z z z z z z j j z z y H 5.2XeX3X7.",
"rXrXkXkXlXxXcXcXnXVXVXCXCXCXCXCXCXCXCXCXCXVXBXV ..h.a.'.}.L.P.P.R.XX}.L.K.K.L.K.' S.G.~ , V V m z z z z z z z z z y H 5.2XeX3Xq.",
"6X8X6XrXkXkXxXkXkXbXVXVXCXCXCXCXCXCXCXVXcXcXlXk X.S.x.b.].}.L.x.R. XT.P.Y.T.T. Xx.S.G.! > b R B z i i y y i i i y y H 5.2XrXeXe.",
":X/.>X8X6XrXrX6XrXcXcXnXCXCXVXVXbXbXbXlX7XkXcXJ X.S.n./ ! :.k.k.].,XL.P.k.k.L.'.'.F.G.! 3 b _ B j y y y y y y y y y H 5.2XrXeXe.",
"3.W 3.!._.8X3X_.2XrXrXkXnXcXkXkXkXkXPX7X4X_.4XJ X.S.Q F t F =.k.].<X|.j.=.F x =.L.].{.3., b _ S V z i i y y y y y y H 5.2XrXeXe.",
"W T W ' f.~.`.3.l.3X<X8XrX7X4X4X4X%X%XoX_.6.] 5 a.S.Q w.z &.U.k.Y.XX,Xj.U.z i F / [.{.] > g R V Z n i z y y y y y y H 5.2XyXeXe.",
"Q W W _  .o.o.' ' B.l.~.oX^.C.~.Z.F.F.V.!.l.W s a.[.b.k.=.:.U.x.m.R.|.I.I.~ -.U.:.].{.! ; h A K W C z i y y y y y y H 5.2XyXeXe.",
"Q Q Q _ '  . ...'  .O.d.h.N.V.C.C.F.S.l.!.l.! v a.[.S.b.P.J.P.m.m.R.'.,XI.j.U.}.oX].{.T , D Q _ _ n z y y y y y y r H 5.2XyXeXe.",
" .' _ _  .o.O.f...o.d.+.+.N.V.C.S.F.C.l.q.!...6 X.[.b.x.L.W.'.m.v.].]..X|.P.L.XXoX{.{.A C / S _ S C f y y y y y y r B 5.2XyXeXe.",
" . .' '  .O.O.f...o.d.h.+.N.V.V.S.F.~.l.!.B.N.A X.[.].XX X}.].m.m.R.]..X,X|.|..XoX{.{.x A T A R V C y y y y y y y r B 5.2XyXeXe.",
" .o. .' o.O.O.f...o.h.h.+.N.V.V.Z.~.`.r.e.!.C./ a.S.].XXR.Y.].s.m.].Y..X,X X.X,XXX{.D.v x ! W V n k y y y y y y y r H 5.3XyXeXe.",
"'  . .' o.d.O.f.a.o.h.N.N.N.V.V.C.~./.:Xt./.~./ s.S.].'.Y.Y.b.s.v.].b. X.X X.X.XXX[.S.T T s.V n f f y y y y y y y r H 5.3XyXeXe.",
"_  . .' o.d.d.a.a.d.N.N.N.N.V.V.C.~.:X:X>X:X_.z.g.n.].].Y.Y.z.b.W.XXv.T..X X,X.XXX].n.a./ s.j k k d y y y y y y y y H 5.3XyXeXe.",
"Q  . .' [ f.f.a.a.d.N.N.h.N.V.V.C.`.:Xt.:X:X/.S.m.n.b.Y.Y.W.z.s. XL.x.J. X.X,X.X'.Y.S.x.D.h.d f d y y y y y y y y r H 8.3XyXeXq.",
"Q '  . .o.f.f.f.f.f.V.V.h.N.V.V.V./.t.t.r.t.r.Y.b.n.b.b.Y.W.s./ j.=.:.P.W..X.X XR.Y.S.x.OXh.d f d y y y y y y y y y H 5.2XrXeXq.",
"O.A.A.Z.F.F.Z.Z.^.V.f.l.f.f.l.l.f.8.w.7.7.q.r.g.c.z.b.b.E.Y.v.E.P.W.T.XX}. X XW.T.Y.S.x..Xh.k y y y y y y y y y y y H 2.>XeXeXe.",
"Z.&X&X&X&X&X&X&X#XB.] ] ! ! 3.B.Z.^.`.B.B.B.^.@./ g.m.v.E.v.v.E.,X X X.X}. XXXT.Y.].h.s.OX..k y y y y y y y y y y y H 2.).6X3Xr.",
"#X&X-XsXsXsXsXdX5XB.k f R ] B.@X&X&X%X#X#X%X@XF.~.s.g.v.v.m.g.v.Q.R.W.XX X}.R.P.P.].@./ S.W n k d y y y y y y y y y H ` !.2X2X).",
"Z.@X@X@X@X@X&XpX5X8.* > 4.Z.#XpXfXfXfXfXsXfX*X@X^.s.s.z.k.s.>.>.,.J.P.T.T.W.T.P.P.]. .D O.R n d y y y y y y y y y r H 4.^.$X$X_.",
"_ M.M.M.f.M.^.4X4X8.y B B.#X&XsXfXfXfXfXdXfX*XF.^.h.s.z.a.~ ( ( >.>.>.:.j.T.L.P.L.S.d.o.' R k y y y y y y y y y y r P M.@X&X%X^.",
"C B.`.!.0.8.!.$X2X!.2.2.B.@X%X&X#X&X&X%X#X@X+Xo.O.a.z.z.k.:.>.,.,.,.>.>.:.L.'.P.T.].Q _ ' R C r t t t t t t t t r r E B.%XpX&X^.",
"2._.4X=X`.!.!.`.`.0.5.2.4.4.6.[ _ _ _ _ ) S R S b _ m.z.Y.b.s.J.Q.J.L.}.W.}.}.T.'.x.b } _ V g 4 4 > > > > > > > 4 r E Z.&XdX&XB.",
"B.^.$X^.6.` ` ` E E L H B m k h 6 7 7 6 : @ # - 6 b z.z.z.Y.v.k.>.L..X,X.X|.(.'.'.f.A S V s 3 ; * @ @ @ @ @ o @ > t E Z.&XsX#X4.",
"8.f.f.` 3 - - - @ * @ @ @ @ - h _ | | _ S C C V S S d.g.z.b.T.T.P.W. X.X}.L.(.'.~.] S S 3 * * - X X X X . .   . > r ) Z.&X5X^.[ ",
"B B B d = o . . . . . . . . # W ^.Z.Z.Z.Z.C.C.C.A.A.C.g.g.b.Y.R.W.W. X}.}.L.I.(.P.Q V V 3 = = & & & & & & .   o > r ` B.#X%X^.f.",
"= = = q q * o . . . X . . o : f.8X5X#X#X#X#X#X%X#X@X| X.z.b.b.E. X X,X X}.L.L.L.x.3.&.2.&.;.;.%.%.%.%.;.w     o > t L M.$X$X^.B.",
"q q q w w * . . . . . . . O 6 l.7X7X5X%X%X&X&X&X%XF.7 x g.g.v.W.W.W. X}.L.P.P.K.x./.1X1X1X0X0X9X9X0X0X9X;.. . * > r B ` B.^.^.Z.",
"w 0 0 q 0 & . . . . . . . O 7 l.rX7X5X%X%X&X&X&X+X#.6 h s.a.k.E.J.T.W.L.K.K.j.l.x.>XqX0XqXuXuXqXqXqXqX0Xp.o o * > r r g R 6.C.Z.",
"q 0 0 0 G ` R K R R R E R E  .^.7X7X5X5X&X&X5X&X$.D : 5 g.a.:.j.J.J.P.K.9.9.j.P.x.:X1Xi.i.i.i.i.t.t.t.p.a o * o ; r 3 : : h 4.Z.",
"q 0 = e 2XkX5X5X#X#X#X#X#X$X$X#X5X5X5X5X5X5X&X#.8 9 % % s.g.a.=.-.=.=.=.=.j.K.P.].o.H t e t = * * * o o . o o X * 5 3 ; ; ; Z C.",
"q 0 = p rXZXmXzXdXdXpXpXpXpX5X5X5X5X5X5X5XsX+X7 $ $ $ % X.n.g.a.=.~ -.9.j.K.P.(.].H.8.l . . X . . . . . X X X . * s 3 ; ; - g B.",
"q 0 = e eXZXBXmXzXfXdXdXdXsXpXpXpXpXpXpXpXF.| 9 $ $ $ % Q S.g.x.K.K.K.K.I.(.|.}.].H.N.1X9.* . X X X X X . X X . - g 3 ; - # 3 B.",
"e 0 = e 6XVXVXbXmXzXzXfXfXdXdXdXdXpXpXdX&X$.} 9 $ $ 2 < v S.g.x.P.I.(.(.(.|.}.}.].H.$.r.qX>Xe + o X . . . X X . ; h 3 ; - @ 3 B.",
"t t = e 3XnXnXbXbXvXzXzXzXfXfXfXdXdXdXdXF.#.8 9 2 1 5 : c n.z.x.P.I.(.(.|.}.}.}.].S.$.q.u.0X>X> +   X . . X X   > D 6 ; - @ 3 B.",
"r r , p 3XcXcXnXnXvXvXzXzXzXzXfXfXfXdX&X#._ 8 9 2 c c , 1 g.z.x.P.I.(.(.|.}.}.'.].].D.K.y.u.0X3X&.> . X X X X   , ^ D : @ O s C.",
", , , p 3XxXcXcXnXbXvXzXzXzXzXzXzXdX*XH.} @.8 7 9 c 5 : 1 s.z.x.P.I.I.(.}.}.}.(.L.].D.K.y.u.u.0XuX3Xt + . X X   5 } ^ 7 : @ g B.",
"- - - y 3XxXxXcXcXcXlXlXzXzXzXfXdXpX&XN.| } 8 D 6 c 1 < , a.g.x.P.I.I.I.W.}.(.L.L.].S.K.y.y.u.u.9XqXeXY o   .   5 ^ ^ D 6 # r ] ",
"@ * @ t 3XiXxXxXcXcXcXlXlXzXzXzXdXzX5X| } 8 8 D v c 1 < 1 :.g.k.P.L.I.I.I.I.L.P.L.'.n.r.y.y.u.u.u.9X0XuX>XG o   , Q } } 6 # - g ",
"@ @ O 4 3XyXyXxXxXxXlXlXlXkXdX7X7X7XF.8 7 6 8 ^ v 5 1 < c / s.k.j.P.P.L.L.L.L.L.L.'.n.p.y.y.u.u.i.1XwXwXuXiX/.l i E ^ D : @ @ @ "
};
