/* XPM */
static char *lmarecha64[] = {
/* columns rows colors chars-per-pixel */
"64 64 255 2 ",
"   c #040D16",
".  c #0C1617",
"X  c #121C1B",
"o  c #151B18",
"O  c #050A08",
"+  c #19221B",
"@  c #282A1D",
"#  c #0C1825",
"$  c #0F1A34",
"%  c #1A2526",
"&  c #172938",
"*  c #252827",
"=  c #312D26",
"-  c #273929",
";  c #363629",
":  c #293935",
">  c #3C3C34",
",  c #373837",
"<  c #292E35",
"1  c #413E38",
"2  c #403E2C",
"3  c #2B4529",
"4  c #38572B",
"5  c #384539",
"6  c #365036",
"7  c #464739",
"8  c #524D39",
"9  c #48533A",
"0  c #565838",
"q  c #4C4D2C",
"w  c #4E6937",
"e  c #65663B",
"r  c #73733B",
"t  c #665F31",
"y  c #3B3D42",
"u  c #263A47",
"i  c #111D70",
"p  c #16256C",
"a  c #394E46",
"s  c #3A4E49",
"d  c #374644",
"f  c #3C534C",
"g  c #3C5046",
"h  c #3E5752",
"j  c #2F4753",
"k  c #305076",
"l  c #3F627B",
"z  c #434343",
"x  c #4B4B44",
"c  c #4A4C4A",
"v  c #454846",
"b  c #49574A",
"n  c #575849",
"m  c #494D55",
"M  c #415650",
"N  c #445B54",
"B  c #4B5955",
"V  c #535454",
"C  c #585958",
"Z  c #524D47",
"A  c #635D55",
"S  c #4C6845",
"D  c #59634B",
"F  c #4A6257",
"G  c #4C635A",
"H  c #4B645C",
"J  c #536B5D",
"K  c #576658",
"L  c #5C7158",
"P  c #507243",
"I  c #666846",
"U  c #6D7346",
"Y  c #747443",
"T  c #797A48",
"R  c #656759",
"E  c #687557",
"W  c #757B57",
"Q  c #595C64",
"!  c #44546A",
"~  c #536B61",
"^  c #5C6666",
"/  c #5B7363",
"(  c #597367",
")  c #526A73",
"_  c #636363",
"`  c #686967",
"'  c #667864",
"]  c #747B65",
"[  c #696974",
"{  c #677975",
"}  c #797977",
"|  c #726B6B",
" . c #615D62",
".. c #837B49",
"X. c #837779",
"o. c #7D814A",
"O. c #7A8359",
"+. c #69815B",
"@. c #7A8768",
"#. c #6B8474",
"$. c #66857A",
"%. c #698678",
"&. c #788A77",
"*. c #79957A",
"=. c #71896B",
"-. c #5F817C",
";. c #89883E",
":. c #848548",
">. c #848957",
",. c #959A57",
"<. c #95974D",
"1. c #828C68",
"2. c #86936A",
"3. c #848876",
"4. c #879877",
"5. c #92996F",
"6. c #90A27B",
"7. c #9FA257",
"8. c #131E8A",
"9. c #19289B",
"0. c #132485",
"q. c #23358D",
"w. c #161EAA",
"e. c #1A26A4",
"r. c #1C23B5",
"t. c #2633B4",
"y. c #325788",
"u. c #375D92",
"i. c #2F5189",
"p. c #396297",
"a. c #3C618E",
"s. c #3E6BA9",
"d. c #557898",
"f. c #4D6D90",
"g. c #7B7A86",
"h. c #6A758B",
"j. c #4574B6",
"k. c #4970AC",
"l. c #4C5EA7",
"z. c #1E24C4",
"x. c #2429C9",
"c. c #2528D8",
"v. c #2832D5",
"b. c #2829F9",
"n. c #272DED",
"m. c #3457E9",
"M. c #4878C4",
"N. c #5173C8",
"B. c #4370F3",
"V. c #837B85",
"C. c #8D7295",
"Z. c #8779A6",
"A. c #5E849A",
"S. c #6B8B82",
"D. c #758A84",
"F. c #799787",
"G. c #7B9C99",
"H. c #6C8894",
"J. c #7193B4",
"K. c #7CA1B3",
"L. c #5883A8",
"P. c #5489D0",
"I. c #659CDC",
"U. c #77B1F5",
"Y. c #6193F0",
"T. c #8A8688",
"R. c #938A8C",
"E. c #859987",
"W. c #898996",
"Q. c #958D97",
"!. c #889896",
"~. c #9B949C",
"^. c #999599",
"/. c #98928E",
"(. c #A3989A",
"). c #A48E90",
"_. c #89A589",
"`. c #95A787",
"'. c #89A795",
"]. c #95AC96",
"[. c #99B59A",
"{. c #95B48D",
"}. c #A6BA99",
"|. c #ABAD8F",
" X c #9D9AA3",
".X c #9B96A7",
"XX c #999BB5",
"oX c #8E8DA5",
"OX c #AA9CAD",
"+X c #A49AA8",
"@X c #A79CB4",
"#X c #A788AF",
"$X c #9BB8A8",
"%X c #9CA2B7",
"&X c #91AEAE",
"*X c #A8A2AB",
"=X c #B4A8AB",
"-X c #A3BDAB",
";X c #A4BAA5",
":X c #ACA4BC",
">X c #A7A5B8",
",X c #B5A7B6",
"<X c #A8BAB2",
"1X c #C1AFB4",
"2X c #A8C3AA",
"3X c #B2CAAC",
"4X c #A5C3B3",
"5X c #AAC7B7",
"6X c #B1CDB8",
"7X c #BBD5BD",
"8X c #B8D3BA",
"9X c #A4C2AA",
"0X c #C4D9BD",
"qX c #C6CAAF",
"wX c #E0DEB9",
"eX c #8FB0C8",
"rX c #AAA8C2",
"tX c #B3ABC6",
"yX c #B5B4CA",
"uX c #B7B7D6",
"iX c #ABB7C8",
"pX c #80B3F1",
"aX c #9AC5CA",
"sX c #A9CBC7",
"dX c #BCD5C2",
"fX c #B8D5C7",
"gX c #B8D8D6",
"hX c #ACCFD1",
"jX c #96D4FF",
"kX c #87C5FC",
"lX c #B3CBEB",
"zX c #B3EBFF",
"xX c #C3DBC5",
"cX c #C5DCCA",
"vX c #C9DFCC",
"bX c #C6D9C5",
"nX c #C6DDD3",
"mX c #CDD5C5",
"MX c #CCE2CD",
"NX c #C6E1C7",
"BX c #CAE2D5",
"VX c #D3E6D5",
"CX c #DCECDB",
"ZX c #D5E9D7",
"AX c #D2E6CE",
"SX c #E3EEDA",
"DX c #E7F0DF",
"FX c #DBECE1",
"GX c #D1EFEE",
"HX c #E4F2E2",
"JX c #EAF6E9",
"KX c #F4F8EC",
"LX c #FEFFFE",
"PX c #F8FDF4",
"IX c #E5F3E7",
/* pixels */
"% % 5 b D K b 6.wXqXqX|.6.2.+.+.`.qX}.`.4.4.4.4.6.{.2X3XxXAXHXHXHXCXMX3X{.].'.#.D.G.K.eXeXG.~ ~ ~ ( F.G./ G F N M f g g s d 5 5 ",
"* - g K ' L F K E ' ' L K G K &.JXLXLXLXPXPXPXKXKXJXDXSXDXJXKXJXAX0X7X3X{.]._.%.G.K.J.Z.eX&X$.G ~ ( F.G./ G F N N f f f s d 5 5 ",
"- : B ' ' K F L / #.#./ / J G *.LXLXLXLXLXLXLXLXLXLXLXLXLXLXLXLXSX0X}.`._._.F.F.eXeXZ.C.rXeXH.J ~ ( D.G./ G F N N M f f g s d g ",
": 5 K / K b b J / / ( ~ ~ J G J qXPXPXLXLXLXLXLXLXLXLXLXLXLXLXLXLXLX0X=.*._.*.&XhXiX).).,XiXK.( G ( D.G./ G F N N M f f g s d a ",
": 5 J J g f N F G G J H H G G N F E @.2.6.|.}.SXLXLXLXLXLXLXLXLXLXLXAX6.`._.'.4XgXyX=X<XqXiXK.{ G ( D.G./ G N N N M f f g s d D ",
": 5 J / G G J J ~ ~ ~ / J J ~ J G G G N B N S mXLXLXLXLXLXLXLXLXKXKX3X2.5.`.{.;XhXyXdXcXmXiXK.S.G / D.F./ F N N M M f g g g d E ",
": 5 / #.#.{ #.#.#.#.#.#.#.#.%.&.&.&.#.#.&.&.3XKXLXLXLXLXLXLXKX}.2.O.E D R 1.6.6.`.<XhXBXgXeXJ.A.H ~ D.F./ F N N M M f g s s d b ",
": 5 ' E.E.F.F.F.F.F.E._._._.].[.;X2X}.;X;X3XJXLXLXLXLXLXLXKX2.D 9 b n n @.@.1.6.2.4.hXnXhXeXJ.d.J ~ D.F./ F N N N M f f g s s d ",
": 5 =.[.[.[.[.[.[.[.[.[.}.2X3X0XSXPXLXLXLXLXLXLXLXLXLXLXPX@.b b v 7 7 n K 4.3.3.4.@.[.gXhXeXL.d.~ ~ D.F./ F N N N N M M g s s s ",
": 6 *.3X0X7X0X0X0X7X7X7X7X0XvXZXKXLXLXLXLXLXLXLXLXLXLXLX`.5 b b m 5 5 I ' ` 3.1.1.2.1.4XgXhXJ.d.~ ~ S.F.~ N N N N N N M f g s a ",
": 6 _.NXCXCXCXCXCXCXCXZXZXZXCXHXPXLXLXLXLXLXLXLXLXLXLXmX7 5 5 b B v y Z O.' ^ 3.3.@.O._.gXgXJ.d.~ J S.F.J N N N N N N M f f s s ",
": 9 {.AXJXJXJXJXJXHXHXHXHXHXHXHXJXKXPXPXLXLXLXLXLXLXLX] : , 5  .} [ [ | R W K R 2.@.W 2.gXBXK.d.H J S.F.J N N N N N N M h f s s ",
"- 6 {.AXHXHXHXHXHXHXHXHXSXSXCXCXHXHXJXJXKXPXPXPXPXLXqX5 , 5 Z X.R.R.V.V.` I R C E @.] o.2XGX&Xd.H J $.F.J N N N N N N N M f s s ",
"- 6 _.xXZXCXCXZXZXZXVXVXVXVXVXVXVXCXCXHXHXIXJXKXKXKX&.d d c A R.(.(.Q.R.X.R I C n W ] W 6.gXeXf.F ~ $.F.J N N N N N N N M f s s ",
"3 4 =.2X0XAXAXMXMXvXcXcXcXcXcXcXvXvXMXVXVXZXCXFXIXbXK m c V | ~.+X+X+X(.Q.` n n c D ] W >.$X&Xf.F ~ $.S.J M N N N N N N M f s g ",
"3 4 P *.}.7XxXxXxXdX7X7X7X7X7X7XdXdXcXcXcXvXnXnXZX].V C C K X.OXOXOXOX+X+XV.n n c 9 I W :.E.J.) F ~ $.S.G M M N N M N N M f g g ",
"3 4 w L 4.2X8X8X8X6X6X6X6X6X6X6X6X8XdXfXdXfXfXcXMX@.V Q K _ Q.:X:X:X:X:X+XT.C n Z > 8 U Y 5.H.~ F ~ $.S.G M M M M M M N M f g g ",
"3 4 w =.F.$X5X5X5X6X5X5X5X5X4X4X5X5XsXfXfXfXfXgXdXE V _ _ _ .XtXtXtXrX:XOXR. .n n 7 7 I e >.F.H G ~ $.S.G M M M M M M M M f g g ",
"- 4 w *.'.[.$X[.-X4X4X4X4X4X4X4X4X4X5X5XsXsXfXgX-XD C ` _ ` OXtXtXtXtXtX>X+X_ C A c > n e o.4.J G ~ $.S.G M M M M f f h f f s g ",
"- 4 P &.].'.4.4.{.$X].].$X$X-X$X$X$X4X4X5XsXsXgX].R C ` _ | :XyXuXuXuXuXtX:X} Q ` C x n 0 r 2./ H ~ $.S.F f f f f f f f f g s g ",
"- 4 P =.4.2.T r 2.E.&.&.E.].[.].'.'.&X$X$X4X5XsXE._ Q ` _ } yXuXuXlXlXuXrXoX[ m ` Q ^ R D e >.' H J $.S.F f f f f f f f f g s g ",
"- 3 P +.@.Y r T 5.1.E I W 2.E.E.@.@.E.E.E.'.$X$X3.C V ` ` V.rXyXuXuXyXoX[ h.oXV n m ) ` V I >.&.D./ $.S.H f f f M h f f f f s s ",
"3 3 w U Y r Y 1.`.1.I I U o.>.O.W T @.W E =._.`.@.V x ` V V [ g.rXtXrXg.H.XXyX[ Z c > V b D 1.].4XD.$.S.G M h h h h f f f f s s ",
"3 3 w e r T Y 4.[.4.Y I U Y T T o.T W Y t I 2.5.O.x x R V g.oXW.XXtX:X.XW.V.W.[ ; > ; 7 c C 1.}.gX'.{ S.H f f f f f f g g g s s ",
"3 3 w e U I I &.`.2.Y Y I e e U T o.T ....Y O.5.W > Z n _ .X.XQ..XyXrXW.g.[ m y ; = ; q 5 C @.`.sXE.#.$.F f f f f f f g g g s s ",
"3 4 w w e 8 v #.4.>.T T 0 q q e T :.T ..:.>.2.5.U ; Z 8 n [ [ [ W.:X>XW.W.d.< j > ; = q ; m @.5.].#.#.$.F f f f f f f g g f s s ",
"3 4 w w q @ : { @.....T q = ; 0 Y :.Y U >.@.@.4.I ; 7 8 1 ! < h.oX*X+X.XXXoXh.H.g.7 = q D ^ 3.>.@.' #.$.F f f f f f f f f f g s ",
"6 4 w 9 @ . % J O.T ..Y q @ 5 7 E 1.W K ' { { 3.I = 7 n V h.Q oX.X(.(.^.rXXXXX>X:X~.n ; I E W ,.1.' #.$.F f f f f f f f f f g s ",
"3 4 S 9 o . X : U T T e @ @ ; 5 ' F.#.H H ) ) &.I = 1 R ^.oXXXXX~.(.(.Q..X@XrX:X,X,X/.7 9 R W ,.2.' #.$.F f f f f f f f f f g g ",
"3 6 S 6 o . . * I T r 0 + * ; ; / D.-.h j k ) &.D > 1 ] OXrXrXOX(.OX+X(.*X+X+X,X,X=X(.v < _ ] :.,.@.#.$.F f f f f f f f f f g g ",
": 6 S 5 X . . % 0 r r q o * > ; A 3.( j j j ~ 3.n > 2 X.,X:XOXOX(.=X*X^.:XtX,X,X,X=X|.x % ! _ e :.@.%.$.G f f f f f f f f f g g ",
": 3 S 3 .     % 0 U 4.+.+ * 5 7 ..|.] : u s E 1.n > ; X.,X,X,XtX(.*X+X^. XtXuX,X,X=X/.x * m d 2 o.@.&.$.G f f g f f f f f f f g ",
"- - 4 9 L L L ' *.`.2X{.L K K b `.3X4.d G / @.@.C > = T.1X,XyXOX(.,X,X(.Q.@XtX:X,X*X/.v * y , 2 Y 2.%.$.H f f g g g g f g f g g ",
"D L +._.2X2X2X2X4X6X7X2X_.*./ b _.6X_.F L *.`.W Z > * | 1X,X:X+X/.OX+XX..X:X@X@XOX^.3.v * , I T T 2.%.$.G f g g g s s g f g s g ",
"$X6X6XdX6X2X2X$X-X-X2X{.*.&.L 5 ' [.*.K E _.}.U x ; @ V =X,XOXOXOXQ.V.oXtX:X+XOX XR.3.1 * , n @.1.@.&.$.F M f g s a s g g g s f ",
"2XdXdX8X[.=.+.E E L E F.'.E.D.$.%.'.F.#.#.].;XE n , * 7 (.OX+XOX,X@X.XrXrX>X.X~.Q.R.3., * z x ] @.@.#.$.N g s N J B d d a s a s ",
"[.2X2X[.&.S b b b b / '.$X&X&X'.'.'.'.G.F.'.].W x 5 7 = X.~.Q.OX>X:XtX:X>XXX.X+X X/.3., < c Z ] @.@.#.~ d : : ~ D.$.5 : d d d : ",
"_._.'.'.'.'.'.'.'.'.'.$X5X4X$X'.F.D.S.S.$.%.E.@.x , > + ` ~.^.Q.~.oXC.C.C.V.Q.>X X^.T.< y V V ' ] &.L 5 + X % ( !.F.5 % : : : : ",
"$X$X4X4X4X4X4X4X2X$X[.-XcXMXdX2X[.E.L 9 b D =.&.V y , o C +X*XR.V.C.C.C.C.oX*X>X X^.3.* y V V ' ] @.D * # # % B S.{ : % : : : < ",
"[.[.].].].].].'.'._.F.4XFXJXIXFXZXcX-X4.E D ] &.C d , + > *X*X*X+X#X#X#X+X>X>X*X~.^.| % m C C ' ] @.f.f.P.P.P.P.I.I.p.: : < % < ",
"H.H.A.A.A.A.L.L.A.d.d.6XFXFXHXJXJXJXFXVX3X`.4.&.^ v y * * /.*X=X=XOX.X.X+X>X>X X~.^.C % V C C ' ] ] d.P.kXjXjXjXjXjXI.: % % % * ",
"j.j.M.M.M.M.M.M.M.s.L.sXcXcXMXCXFXHXFXCXVXxX8XE.C m m < % | (.*X=XOX@XrX:X>X>X^.~.T., , Q C V ' ] W f.P.jXGXzXzXzXzXU.: % % + % ",
"k.j.M.M.j.k.M.M.k.p.A.5X6X6XdXcXnXnXcX7XvXCXZX[.b B Q d % y /.(.=X,XtXtX:X,X*XR.^.R * m Q V n ' W W B a.U.jXkXU.U.U.L.% % % X X ",
"a.k.j.k.p.p.j.j.p.i.A.4X2X2X5XdXxXfX8X2X8XMXMX[.x B ! m < * ` /.*X,X:XtX:XtX+X3.X.> < Q Q V D R @.W b u l y.k k k k p i i p $ o ",
"l f.k.f.f.k.M.j.s.y.H.4X-X-X-XgXBXvXcXfXxXcXxX`.9 m m d < X z 3./.,XtXtXrX:XR.] V ; m ^ C n K R @.] ! p p p 0.8.e.e.r.c.x.t.$ o ",
": d u ! d.d.N.M.s.y.H.4X4X4X-XgXFXZXZXVXMXMXxX`.8 c m , < X z g.} ~.:X>X>XQ.| C c c [ C C V K D @.3.a.q.q.t.v.x.v.x.c.b.n.x.$ + ",
"X X . ! k.d.N.M.k.u.G.4X-X4X<XhXBXFXFXCXZXZX7X2.n > m = = o z Q.g.| } V.V.` _ _  .[ [ C V D K n @.4.l.t.t.v.n.x.c.x.c.b.b.c.$ + ",
"% % X u.j.k.M.j.s.u.G.5X;X;X-XsXgXBXFXZXZXZX2X@.R ; v , = * z Q.^.W.} ` R ` [ [ [ h.^ V C R K n ] E.N.m.v.b.n.c.c.c.n.b.b.c.$ X ",
"X X X y.j.k.j.s.u.y.G.5X-X$X$XaXhXgXBXBXBXZX].&.E ; > > ; * z Q.~.~.%X%XoXW.D.g.} h.Q C R ` V n ] E.P.Y.B.b.n.c.c.x.n.b.n.x.$ o ",
"X X X i.s.p.p.u.u.y.G.4X-X-X<XaXhXhXgXnXBXvXE.!.E 2 > > , * z Q. X~.+X>X%X%XoX} g.[ ^ C R ` c n ] E.U.U.B.m.b.c.x.t.n.b.n.x.$ . ",
". . # k p.u.p.u.y.i.G.2X$X-X4XaXaXhXhXgXgX5XE.!.E 7 1 7 1 * z Q. X X+X>X%X%XW.g.H.C _ A R _ v n ] E.pXU.Y.B.m.v.t.t.c.b.b.c.$ . ",
". . # y.u.u.u.y.i.k G.-X$X-X<XaXaXaXhXhXgX-XT.!.E 8 x x 7 * 1 Q. X X>X>X>XXXT.W.[ C | _ R K v n ] E.U.Y.B.B.m.i.q.9.c.n.n.z.$ . ",
".   % p.p.y.u.y.k k G.;X;X2X<XeXaXaXsXhXhX[.&.!.R n V V Z * z R. X X*X>X>X.XW.W.V _ } _ R b v C W 4.{ j u u & % X i c.c.c.e.# X ",
".   & s.p.i.y.k k k G.$X$X-X-XeXaXaXaXsXsX_.&.W.| C C _ V < Z R.~. X*X>XXXQ.T.| x [ _ Z D v z n T 5.D + X X X     i n.c.c.9.# + ",
"O O # s.y.k k k k l !.$X;X2X4XaXaXsXsXsXfX4.] } [ _ Q _ Z ,  .T.~. X*X*X.XQ.D.A v ` Z 2 K m d 9 Y ,.E * X . X     i n.c.z.0.# % ",
"' =.*.&X&X&X$X$X4X4X8XdXdXxXcXvXvXcXcXvX7X2.] | [ ^ C _ C y | T.^. X+X*X.XW.} n c D 1 7 R b 5 9 Y 7.E + .   .   . 0.n.c.e.0.# + ",
"NXMXMXMXVXVXAXVXVXVXMXMXMXMXMXMXMXMXcXMX3X@.E K C V m ^ C c } T.^.~.+X+X XT.| Z > 8 > 7 R c x n Y 7.>.+ o .   X X 8.b.z.9.0.# + ",
"7XxXcXcXMXMXMXMXMXMXMXMXMXMXMXMXMXMXcXcX}.O.I c c z c C c C } T.^.~. X+X XT.| z > 8 z Z R c c D o.,.,.; + . X % . e.b.z.e.0.# o ",
"7XdXxXcXcXvXMXMXMXMXMXMXMXMXMXMXMXBXcX2X4.W 0 5 1 > m x x C V.R.~. X X.X X3.` 1 > 8 C C ] b c I r <.,.0 ; > 5 % . 9.c.r.9.0.# . ",
"8X7XdXxXcXcXvXvXMXMXMXMXvXvXMXvXZX4X&.^ @.T q ; ; ; > 1 z C V.R.~. X X X~.} _ 7 z n ` ^ D.V 0 0 r <.,.U 9 n x .   e.z.e.e.0.# X ",
"8X7XdXxXxXcXcXvXvXvXvXvXvXvXvXVX$Xs d s ] T q = = = = 1 1 V V.Q.~.+X*X+XQ.} ` 7 z C } ^ W.R 0 0 :.:.<.@.{ $XIX].  w.z.e.e.i # % ",
"6X8XdXdXxXcXcXcXvXvXvXvXvXvXBX5X! d.H.h.&.T q = ; = = 7 x Z V.~. X*X*X*X~.} R z c C D.[ D.I t o.<.;.<.&.sXGXGXGX<Xt.r.e.9.i # % ",
"6X8XdXdXfXxXcXcXcXcXcXcXvXvXfXS.&XeXeXeX!.W 0 2 ; = , Z ` C g.Q. X+X>X>X X3.R z m R T.g.R e r <.;.:.<.}.GX&X) j E.uXr.e.9.i # % ",
"5X6X5XdXdXfXxXcXcXcXcXcXcXvX$X&XeXeXeXeX&XW e 0 q > , v } [ XXoX^. X+X+X~.} A x m ` } } U Y >.,.;.<.>.].K.j u u & { l.w.0.i # 5 "
};
